<svg xmlns="http://www.w3.org/2000/svg" viewBox="-50 -50 100 100" width="120" height="120">
  <circle cx="0" cy="0" r="47" fill="#0f0c1e"/>
  <circle cx="0" cy="0" r="46" fill="none" stroke="#e6c887" stroke-opacity="0.28" stroke-width="1"/>
  <circle cx="0" cy="0" r="13.2" fill="none" stroke="#e6c887" stroke-width="2.3" stroke-linecap="round" stroke-linejoin="round"/>
  <circle cx="0" cy="0" r="2.25" fill="#e6c887"/>
  <path d="M 0 -15 L 0 -25.2" fill="none" stroke="#e6c887" stroke-width="2.3" stroke-linecap="round" stroke-linejoin="round"/>
  <path d="M 0 -25.2 L 2.3 -20.99" fill="none" stroke="#e6c887" stroke-width="2.3" stroke-linecap="round" stroke-linejoin="round"/>
  <path d="M 0 -25.2 L -2.3 -20.99" fill="none" stroke="#e6c887" stroke-width="2.3" stroke-linecap="round" stroke-linejoin="round"/>
  <path d="M 15 0 L 25.2 0" fill="none" stroke="#e6c887" stroke-width="2.3" stroke-linecap="round" stroke-linejoin="round"/>
  <path d="M 25.2 0 L 20.99 2.3" fill="none" stroke="#e6c887" stroke-width="2.3" stroke-linecap="round" stroke-linejoin="round"/>
  <path d="M 25.2 0 L 20.99 -2.3" fill="none" stroke="#e6c887" stroke-width="2.3" stroke-linecap="round" stroke-linejoin="round"/>
  <path d="M 0 15 L 0 25.2" fill="none" stroke="#e6c887" stroke-width="2.3" stroke-linecap="round" stroke-linejoin="round"/>
  <path d="M 0 25.2 L -2.3 20.99" fill="none" stroke="#e6c887" stroke-width="2.3" stroke-linecap="round" stroke-linejoin="round"/>
  <path d="M 0 25.2 L 2.3 20.99" fill="none" stroke="#e6c887" stroke-width="2.3" stroke-linecap="round" stroke-linejoin="round"/>
  <path d="M -15 0 L -25.2 0" fill="none" stroke="#e6c887" stroke-width="2.3" stroke-linecap="round" stroke-linejoin="round"/>
  <path d="M -25.2 0 L -20.99 -2.3" fill="none" stroke="#e6c887" stroke-width="2.3" stroke-linecap="round" stroke-linejoin="round"/>
  <path d="M -25.2 0 L -20.99 2.3" fill="none" stroke="#e6c887" stroke-width="2.3" stroke-linecap="round" stroke-linejoin="round"/>
</svg>
